<svg id="logo" xmlns="http://www.w3.org/2000/svg" fill="none" viewBox="0 0 842 188">
  <path fill="#9f1f2e" d="M26 57c-1 0-1.8-.1-2.3-.4l-21-12.1a5.3 5.3 0 0 1-2.2-3.9V16.4c0-1.3 1.1-3.2 2.3-3.8L23.8.5c1-.6 3.3-.6 4.3 0l21 12c1.1.7 2.2 2.6 2.2 4v24.1c0 1.3-1 3.2-2.2 3.9l-21 12c-.5.4-1.3.5-2.2.5zM54 106c-.8 0-1.7-.2-2.2-.5L31 93.3a5.3 5.3 0 0 1-2.2-3.8V65.3c0-1.3 1.1-3.2 2.2-3.9l21-12c.2-.2 1-.6 2.2-.6 1.3 0 2 .4 2.2.5l21 12.1c1.1.7 2.2 2.6 2.2 3.9v24.2c0 1.3-1 3.2-2.2 3.8l-21 12.1c-.5.3-1.3.5-2.2.5zm53.6 32.4c0 1.3-1.1 3.2-2.2 3.9l-21 12c-.2.2-1 .5-2.2.5-1.3 0-2-.3-2.2-.4l-21-12.1a5.3 5.3 0 0 1-2.2-3.9v-24.2c0-1.3 1.1-3.2 2.2-3.8l21-12.1c.2-.1 1-.5 2.2-.5.9 0 1.7.2 2.2.5l21 12c1.1.7 2.2 2.6 2.2 4v24.1zm28.2-48.8c0 1.3-1 3.2-2.2 3.8l-21 12.1c-.2.1-.9.5-2.2.5-1.3 0-2-.4-2.2-.5l-21-12a5.3 5.3 0 0 1-2.2-4V65.4c0-1.3 1.1-3.2 2.3-3.9l21-12c.4-.4 1.3-.6 2.1-.6 1.3 0 2 .4 2.2.5l21 12.1c1.1.7 2.2 2.6 2.2 3.9v24.2zm28.2-48.9c0 1.3-1 3.2-2.2 3.9l-21 12c-.2.2-.9.5-2.2.5-1.2 0-2-.3-2.2-.4l-21-12.1a5.3 5.3 0 0 1-2.2-3.9V16.4c0-1.3 1.1-3.2 2.3-3.8l21-12.1c.4-.3 1.3-.5 2.1-.5 1.3 0 2 .4 2.2.5l21 12c1.1.7 2.2 2.6 2.2 4v24.1zM442.1 80.1c4.6-2.7 7.1-7 7.1-12.5 0-3.5-1.3-6.7-3.7-9.1-3.3-3.2-8.4-5-14.6-5h-23v55.2h24.2c12.2 0 20-6.1 20-15.7 0-6-3.4-10.4-10-12.9zm-10 22.7h-18v-19H431c5.6 0 15 1.2 15 9.3 0 6-5.3 9.7-13.7 9.7zM430.6 78H414V59.4h16.7c7.6 0 12.1 3.2 12.1 8.8 0 6-4.7 9.7-12.4 9.7zM488.6 53.1h-5.2l-25.7 55.6h6.5l6.8-14.8h29.8l6.7 14.8h6.8L488.6 53zm9.5 35h-24.4l12.2-26.8L498.1 88zM548 85.8c9.2-2 14.7-7.8 14.7-16.1 0-4-1.6-8-4.4-10.7a21.9 21.9 0 0 0-15.7-5.5h-18.8v55.2h6.2v-22h11l17 22h7.8l-17.7-23zm-18-26.4h12.4c8.8 0 14 3.9 14 10.6 0 6.6-5.6 11-14.2 11H530V59.3zM584.2 102.8v-19H610V78h-25.8V59.4h29.2v-6H578v55.3h35.8v-5.9h-29.6zM665.4 59.4v-6h-35v55.3h6.1V83.8H662V78h-25.4V59.4h28.9zM701.5 52.6c-17.5 0-27.9 14.5-27.9 28.6a27.4 27.4 0 0 0 27.7 28.4c17.4 0 27.9-14.5 27.9-28.7 0-16.1-12-28.3-27.7-28.3zm0 51.2c-12.1 0-21.5-10-21.5-22.9 0-12.8 9.1-22.5 21.3-22.5 12 0 21.5 10 21.5 22.8 0 12.9-9.2 22.6-21.3 22.6zM767.9 52.6C750.5 52.6 740 67 740 81.2a27.4 27.4 0 0 0 27.6 28.4c17.5 0 27.9-14.5 27.9-28.7a27.4 27.4 0 0 0-27.7-28.3zm0 51.2c-12 0-21.5-10-21.5-22.9 0-12.8 9.2-22.5 21.3-22.5 12 0 21.5 10 21.5 22.8 0 12.9-9.2 22.6-21.3 22.6zM802.8 53.5v5.9H819v49.3h6.2V59.4h16.2v-6h-38.6zM278.2 53.5h13.4L306 92.4l14.4-38.9h13l-22.2 55.6h-10.7l-22.3-55.6zM186.8 53.5h13.4l14.4 38.9L229 53.5h13.1l-22.3 55.6h-10.7l-22.3-55.6zM254 53.5h12.2v55.2h-12.1V53.5zM337 81.2v-.1a28.5 28.5 0 0 1 29.4-28.5c17 0 29.2 12.7 29.2 28.3v.2a28.5 28.5 0 0 1-29.4 28.5c-17 0-29.2-12.7-29.2-28.4zm46 0v-.1c0-9.5-7-17.3-16.8-17.3-9.7 0-16.5 7.7-16.5 17.1v.2c0 9.4 7 17.3 16.7 17.3s16.5-7.7 16.5-17.2z"/>
</svg>