<svg width="160" height="179" viewBox="0 0 160 179" fill="none" xmlns="http://www.w3.org/2000/svg">
<g clip-path="url(#clip0)">
<path d="M151.6 38.4203L88.47 2.13033C85.7489 0.746984 82.7425 0.0176494 79.69 0.00033172C76.8555 -0.017918 74.0671 0.717151 71.61 2.13033L8.45 38.4203C8.37 38.4703 0 43.4203 0 53.0003V125.51C0 125.61 0.15 135.31 8.45 140.08L71.6 176.37C74.325 177.753 77.3344 178.482 80.39 178.5C83.2278 178.52 86.02 177.785 88.48 176.37L151.59 140.08C151.67 140.08 160 135.08 160 125.51V53.0003C160 52.9003 159.9 43.2003 151.6 38.4203Z" fill="#3C5A99"/>
<path d="M115 120.136C115 122.27 113.27 124 111.137 124H93.2991V96.8921H102.398L103.76 86.3277H93.2991V79.583C93.2991 76.5244 94.1484 74.44 98.5345 74.44L104.129 74.4376V64.9887C103.161 64.8599 99.8404 64.5723 95.9769 64.5723C87.9113 64.5723 82.3894 69.4956 82.3894 78.5368V86.3277H73.2671V96.8921H82.3894V124H48.8635C46.7291 124 45 122.27 45 120.136V57.8634C45 55.7294 46.7294 54 48.8635 54H111.137C113.27 54 115 55.7294 115 57.8634V120.136Z" fill="white"/>
</g>
<defs>
<clipPath id="clip0">
<rect width="160" height="178.501" fill="white"/>
</clipPath>
</defs>
</svg>
