<svg width="160" height="179" viewBox="0 0 160 179" fill="none" xmlns="http://www.w3.org/2000/svg">
<path d="M151.6 38.42L88.47 2.13C85.7489 0.746656 82.7425 0.0173213 79.69 3.6562e-06C76.8555 -0.0182461 74.0671 0.716823 71.61 2.13L8.45 38.42C8.37 38.47 0 43.42 0 53V125.51C0 125.61 0.15 135.31 8.45 140.08L71.6 176.37C74.325 177.752 77.3344 178.482 80.39 178.5C83.2278 178.52 86.02 177.785 88.48 176.37L151.59 140.08C151.67 140.08 160 135.08 160 125.51V53C160 52.9 159.9 43.2 151.6 38.42Z" fill="white"/>
</svg>
