<svg width="160" height="179" viewBox="0 0 160 179" fill="none" xmlns="http://www.w3.org/2000/svg">
<g clip-path="url(#clip0)">
<path d="M151.6 38.4203L88.47 2.13033C85.7489 0.746984 82.7425 0.0176494 79.69 0.00033172C76.8555 -0.017918 74.0671 0.717151 71.61 2.13033L8.45 38.4203C8.37 38.4703 0 43.4203 0 53.0003V125.51C0 125.61 0.15 135.31 8.45 140.08L71.6 176.37C74.325 177.753 77.3344 178.482 80.39 178.5C83.2278 178.52 86.02 177.785 88.48 176.37L151.59 140.08C151.67 140.08 160 135.08 160 125.51V53.0003C160 52.9003 159.9 43.2003 151.6 38.4203Z" fill="#FF003C"/>
<path d="M79.9998 60.3064C89.3452 60.3064 90.452 60.3421 94.143 60.5105C97.5555 60.6663 99.4085 61.2363 100.642 61.7156C102.162 62.2767 103.537 63.1714 104.666 64.3338C105.829 65.4628 106.723 66.8379 107.284 68.3581C107.764 69.5914 108.334 71.4447 108.49 74.8571C108.658 78.5479 108.694 79.6548 108.694 89.0005C108.694 98.3462 108.658 99.4528 108.49 103.144C108.334 106.556 107.764 108.409 107.284 109.643C106.702 111.152 105.81 112.523 104.666 113.667C103.522 114.811 102.151 115.703 100.642 116.285C99.4087 116.765 97.5555 117.335 94.143 117.49C90.453 117.659 89.3461 117.695 79.9998 117.695C70.6534 117.695 69.547 117.659 65.8566 117.49C62.4441 117.335 60.591 116.765 59.3576 116.285C57.8374 115.724 56.4623 114.83 55.3333 113.667C54.1709 112.538 53.2762 111.163 52.7152 109.643C52.2358 108.41 51.6657 106.556 51.5101 103.144C51.3417 99.4532 51.306 98.3462 51.306 89.0005C51.306 79.6548 51.3417 78.5482 51.5101 74.8571C51.6658 71.4447 52.2358 69.5916 52.7152 68.3581C53.2763 66.8379 54.171 65.4627 55.3336 64.3337C56.4626 63.1712 57.8377 62.2766 59.3579 61.7155C60.5912 61.2362 62.4444 60.666 65.8568 60.5104C69.5475 60.342 70.6544 60.3063 80.0001 60.3063L79.9998 60.3064ZM80.0001 54C70.4946 54 69.3023 54.0403 65.5698 54.2106C61.8443 54.3807 59.3002 54.9723 57.074 55.8375C54.7386 56.7164 52.6231 58.094 50.8749 59.8745C49.094 61.6226 47.716 63.7382 46.8368 66.0737C45.9722 68.3001 45.3807 70.8442 45.2113 74.5697C45.0403 78.3023 45 79.4946 45 89.0001C45 98.5056 45.0403 99.6979 45.2113 103.43C45.3814 107.156 45.9729 109.7 46.8382 111.926C47.717 114.262 49.0947 116.377 50.8751 118.126C52.6234 119.906 54.7389 121.284 57.0743 122.162C59.3006 123.028 61.8448 123.619 65.5701 123.789C69.3032 123.96 70.4951 124 80.0003 124C89.5056 124 90.6981 123.96 94.4306 123.789C98.1561 123.619 100.7 123.028 102.926 122.162C105.251 121.263 107.363 119.888 109.126 118.126C110.888 116.363 112.263 114.251 113.162 111.926C114.028 109.7 114.619 107.156 114.789 103.43C114.96 99.6973 115 98.5054 115 89.0001C115 79.4947 114.96 78.3023 114.789 74.5697C114.619 70.8442 114.028 68.3001 113.162 66.0738C112.284 63.7384 110.906 61.6229 109.126 59.8746C107.377 58.0938 105.262 56.7159 102.926 55.8368C100.7 54.9723 98.1555 54.3807 94.4301 54.2113C90.6975 54.0403 89.5052 54 79.9998 54H80.0001Z" fill="white"/>
<path d="M79.9998 71.027C76.4451 71.027 72.9702 72.0811 70.0146 74.056C67.059 76.0309 64.7553 78.8379 63.395 82.1221C62.0347 85.4062 61.6788 89.02 62.3722 92.5064C63.0657 95.9929 64.7775 99.1953 67.291 101.709C69.8046 104.222 73.0071 105.934 76.4935 106.628C79.9799 107.321 83.5936 106.965 86.8777 105.605C90.1618 104.245 92.9688 101.941 94.9437 98.9853C96.9186 96.0297 97.9727 92.5548 97.9727 89.0001C97.9727 84.2333 96.0791 79.6618 92.7085 76.2912C89.338 72.9206 84.7665 71.027 79.9998 71.027ZM79.9998 100.667C77.6924 100.667 75.4368 99.9824 73.5183 98.7004C71.5997 97.4185 70.1044 95.5964 69.2214 93.4646C68.3385 91.3328 68.1074 88.987 68.5576 86.7239C69.0078 84.4609 70.1189 82.3821 71.7505 80.7505C73.3821 79.1189 75.4609 78.0078 77.724 77.5576C79.987 77.1075 82.3328 77.3385 84.4645 78.2216C86.5963 79.1046 88.4184 80.5999 89.7003 82.5185C90.9822 84.437 91.6664 86.6926 91.6664 89.0001C91.6664 92.0943 90.4372 95.0617 88.2493 97.2496C86.0614 99.4375 83.094 100.667 79.9998 100.667Z" fill="white"/>
<path d="M98.6828 74.5169C101.002 74.5169 102.883 72.6365 102.883 70.317C102.883 67.9974 101.002 66.117 98.6828 66.117C96.3632 66.117 94.4829 67.9974 94.4829 70.317C94.4829 72.6365 96.3632 74.5169 98.6828 74.5169Z" fill="white"/>
</g>
<defs>
<clipPath id="clip0">
<rect width="160" height="178.501" fill="white"/>
</clipPath>
</defs>
</svg>
