<svg width="160" height="179" viewBox="0 0 160 179" fill="none" xmlns="http://www.w3.org/2000/svg">
<g clip-path="url(#clip0)">
<path d="M151.6 38.42L88.47 2.13003C85.7489 0.746679 82.7425 0.0173442 79.69 2.65444e-05C76.8555 -0.0182232 74.0671 0.716845 71.61 2.13003L8.45 38.42C8.37 38.47 0 43.42 0 53V125.51C0 125.61 0.15 135.31 8.45 140.08L71.6 176.37C74.325 177.752 77.3344 178.482 80.39 178.5C83.2278 178.52 86.02 177.785 88.48 176.37L151.59 140.08C151.67 140.08 160 135.08 160 125.51V53C160 52.9 159.9 43.2 151.6 38.42Z" fill="#1DA1F2"/>
<path d="M67.0145 117C93.4313 117 107.877 95.4572 107.877 76.7767C107.877 76.1649 107.864 75.5557 107.836 74.9493C110.64 72.9538 113.078 70.4636 115 67.6288C112.427 68.7547 109.658 69.5127 106.753 69.8544C109.718 68.1042 111.994 65.3356 113.068 62.035C110.293 63.6543 107.22 64.8312 103.948 65.4665C101.327 62.7185 97.5964 61 93.465 61C85.5339 61 79.1022 67.3311 79.1022 75.1354C79.1022 76.2448 79.2282 77.3239 79.4747 78.3588C67.5381 77.7676 56.954 72.1421 49.8714 63.5881C48.638 65.6773 47.9267 68.1042 47.9267 70.6937C47.9267 75.5984 50.4622 79.9285 54.3178 82.4615C51.9616 82.3898 49.7482 81.7531 47.8133 80.6934C47.8112 80.7527 47.8112 80.8105 47.8112 80.8739C47.8112 87.7204 52.7617 93.4369 59.3333 94.7323C58.1265 95.0562 56.8567 95.2298 55.5463 95.2298C54.6223 95.2298 53.7221 95.1403 52.8471 94.9748C54.6755 100.592 59.9774 104.68 66.2634 104.794C61.348 108.587 55.1557 110.845 48.4258 110.845C47.268 110.845 46.1242 110.78 45 110.65C51.3561 114.66 58.9035 117 67.0152 117" fill="white"/>
</g>
<defs>
<clipPath id="clip0">
<rect width="160" height="178.501" fill="white" transform="translate(0 -0.000305176)"/>
</clipPath>
</defs>
</svg>
