<svg xmlns="http://www.w3.org/2000/svg" width="300" height="300" fill="none"><path fill="#9F1F2E" d="M94.7 130.6c-.8 0-1.6-.2-2.1-.5L72 118.3c-1-.6-2.1-2.5-2.1-3.7V91c0-1.3 1-3.1 2.2-3.7l20.4-11.8c1-.6 3.3-.6 4.3 0l20.4 11.8c1 .6 2.1 2.4 2.1 3.7v23.6c0 1.2-1 3-2.1 3.7l-20.4 11.8c-.5.3-1.3.5-2.2.5zm27.5 47.5c-.8 0-1.6-.1-2.2-.4l-20.4-11.8c-1-.6-2.1-2.5-2.1-3.7v-23.6c0-1.3 1-3.1 2.1-3.8l20.4-11.7c.2-.2 1-.5 2.2-.5 1.2 0 2 .3 2.1.5l20.5 11.7c1 .7 2.1 2.5 2.1 3.8v23.6c0 1.2-1 3-2.1 3.7l-20.5 11.8c-.5.3-1.3.4-2.1.4zm52.2 31.6c0 1.3-1 3.1-2.2 3.8l-20.4 11.8c-.2 0-1 .4-2.1.4-1.3 0-2-.3-2.2-.4L127 213.5c-1.1-.7-2.2-2.5-2.2-3.8v-23.5c0-1.3 1.1-3.2 2.2-3.8l20.4-11.8c.2 0 1-.4 2.2-.4.8 0 1.6.1 2.1.4l20.4 11.8c1.1.6 2.2 2.5 2.2 3.7v23.6zm27.4-47.5c0 1.2-1 3-2.1 3.7l-20.4 11.8c-.2 0-1 .4-2.2.4-1.2 0-2-.3-2.1-.4l-20.4-11.8c-1.1-.6-2.2-2.5-2.2-3.7v-23.6c0-1.3 1-3.1 2.2-3.8l20.4-11.7c.5-.3 1.3-.5 2.1-.5 1.3 0 2 .3 2.2.5l20.4 11.7c1 .7 2.1 2.5 2.1 3.8v23.6zm27.5-47.6c0 1.2-1 3-2.1 3.7l-20.4 11.8c-.2.1-1 .5-2.2.5-1.2 0-2-.4-2.2-.5L182 118.3c-1-.6-2.1-2.5-2.1-3.7V91c0-1.3 1-3.1 2.1-3.7l20.5-11.8c.5-.3 1.3-.5 2.1-.5 1.2 0 2 .4 2.2.5l20.4 11.8c1 .6 2.1 2.4 2.1 3.7v23.6z"/></svg>