<svg width="160" height="179" viewBox="0 0 160 179" fill="none" xmlns="http://www.w3.org/2000/svg">
<g clip-path="url(#clip0)">
<path d="M151.6 38.4203L88.47 2.13033C85.7489 0.746984 82.7425 0.0176494 79.69 0.00033172C76.8555 -0.017918 74.0671 0.717151 71.61 2.13033L8.45 38.4203C8.37 38.4703 0 43.4203 0 53.0003V125.51C0 125.61 0.15 135.31 8.45 140.08L71.6 176.37C74.325 177.753 77.3344 178.482 80.39 178.5C83.2278 178.52 86.02 177.785 88.48 176.37L151.59 140.08C151.67 140.08 160 135.08 160 125.51V53.0003C160 52.9003 159.9 43.2003 151.6 38.4203Z" fill="#FF0000"/>
<path d="M79.7051 64C79.7051 64 57.3539 64.0001 51.7656 65.4707C48.7656 66.2942 46.2942 68.7654 45.4707 71.8242C44.0001 77.4125 44 89 44 89C44 89 44.0001 100.646 45.4707 106.176C46.2942 109.235 48.7068 111.647 51.7656 112.471C57.4127 114 79.7051 114 79.7051 114C79.7051 114 102.058 114 107.646 112.529C110.705 111.706 113.118 109.293 113.941 106.234C115.412 100.646 115.412 89.0586 115.412 89.0586C115.412 89.0586 115.471 77.4125 113.941 71.8242C113.118 68.7654 110.705 66.3528 107.646 65.5293C102.058 63.9999 79.7051 64 79.7051 64ZM72.5879 78.2949L91.1758 89L72.5879 99.7051V78.2949Z" fill="white"/>
</g>
<defs>
<clipPath id="clip0">
<rect width="160" height="178.501" fill="white"/>
</clipPath>
</defs>
</svg>
